<svg xmlns="http://www.w3.org/2000/svg" viewBox="0 0 200 120">
  <defs>
    <linearGradient id="c4bg" x1="0" y1="0" x2="1" y2="1">
      <stop offset="0" stop-color="#34D399"/>
      <stop offset="1" stop-color="#0284C7"/>
    </linearGradient>
  </defs>
  <rect width="200" height="120" rx="16" fill="url(#c4bg)"/>
  <circle cx="32" cy="90" r="20" fill="#fff" opacity="0.12"/>
  <circle cx="172" cy="26" r="14" fill="#fff" opacity="0.1"/>
  <g transform="translate(76,20)" fill="none" stroke="#fff" stroke-width="4" stroke-linecap="round" stroke-linejoin="round" opacity="0.95">
    <path d="M14 6h20v14c0 9-5 15-10 17-5-2-10-8-10-17V6z"/>
    <path d="M14 10H6c0 8 3 13 8 15M34 10h8c0 8-3 13-8 15"/>
    <line x1="24" y1="37" x2="24" y2="46"/>
    <line x1="16" y1="50" x2="32" y2="50"/>
    <path d="M20 58l3 3 6-7" stroke-width="3"/>
  </g>
</svg>
